<svg width="229" height="72" viewBox="0 0 229 72" fill="none" xmlns="http://www.w3.org/2000/svg">
<path d="M0.409091 12.3523V0.181816H57.75V12.3523H36.375V70H21.7841V12.3523H0.409091ZM82.9858 71.0227C77.6903 71.0227 73.1108 69.8977 69.2472 67.6477C65.4063 65.375 62.4403 62.2159 60.3494 58.1705C58.2585 54.1023 57.2131 49.3864 57.2131 44.0227C57.2131 38.6136 58.2585 33.8864 60.3494 29.8409C62.4403 25.7727 65.4063 22.6136 69.2472 20.3636C73.1108 18.0909 77.6903 16.9545 82.9858 16.9545C88.2812 16.9545 92.8494 18.0909 96.6903 20.3636C100.554 22.6136 103.531 25.7727 105.622 29.8409C107.713 33.8864 108.759 38.6136 108.759 44.0227C108.759 49.3864 107.713 54.1023 105.622 58.1705C103.531 62.2159 100.554 65.375 96.6903 67.6477C92.8494 69.8977 88.2812 71.0227 82.9858 71.0227ZM83.054 59.7727C85.4631 59.7727 87.4744 59.0909 89.0881 57.7273C90.7017 56.3409 91.9176 54.4545 92.7358 52.0682C93.5767 49.6818 93.9972 46.9659 93.9972 43.9205C93.9972 40.875 93.5767 38.1591 92.7358 35.7727C91.9176 33.3864 90.7017 31.5 89.0881 30.1136C87.4744 28.7273 85.4631 28.0341 83.054 28.0341C80.6222 28.0341 78.5767 28.7273 76.9176 30.1136C75.2813 31.5 74.0426 33.3864 73.2017 35.7727C72.3835 38.1591 71.9744 40.875 71.9744 43.9205C71.9744 46.9659 72.3835 49.6818 73.2017 52.0682C74.0426 54.4545 75.2813 56.3409 76.9176 57.7273C78.5767 59.0909 80.6222 59.7727 83.054 59.7727ZM137.497 70.8523C133.52 70.8523 129.918 69.8295 126.69 67.7841C123.486 65.7159 120.94 62.6818 119.054 58.6818C117.19 54.6591 116.259 49.7273 116.259 43.8864C116.259 37.8864 117.224 32.8977 119.156 28.9205C121.088 24.9205 123.656 21.9318 126.861 19.9545C130.088 17.9545 133.622 16.9545 137.463 16.9545C140.395 16.9545 142.838 17.4545 144.793 18.4545C146.77 19.4318 148.361 20.6591 149.565 22.1364C150.793 23.5909 151.724 25.0227 152.361 26.4318H152.804V0.181816H167.293V70H152.974V61.6136H152.361C151.679 63.0682 150.713 64.5114 149.463 65.9432C148.236 67.3523 146.634 68.5227 144.656 69.4545C142.702 70.3864 140.315 70.8523 137.497 70.8523ZM142.099 59.2955C144.44 59.2955 146.418 58.6591 148.031 57.3864C149.668 56.0909 150.918 54.2841 151.781 51.9659C152.668 49.6477 153.111 46.9318 153.111 43.8182C153.111 40.7045 152.679 38 151.815 35.7045C150.952 33.4091 149.702 31.6364 148.065 30.3864C146.429 29.1364 144.44 28.5114 142.099 28.5114C139.713 28.5114 137.702 29.1591 136.065 30.4545C134.429 31.75 133.19 33.5455 132.349 35.8409C131.509 38.1364 131.088 40.7955 131.088 43.8182C131.088 46.8636 131.509 49.5568 132.349 51.8977C133.213 54.2159 134.452 56.0341 136.065 57.3523C137.702 58.6477 139.713 59.2955 142.099 59.2955ZM202.892 71.0227C197.597 71.0227 193.017 69.8977 189.153 67.6477C185.313 65.375 182.347 62.2159 180.256 58.1705C178.165 54.1023 177.119 49.3864 177.119 44.0227C177.119 38.6136 178.165 33.8864 180.256 29.8409C182.347 25.7727 185.313 22.6136 189.153 20.3636C193.017 18.0909 197.597 16.9545 202.892 16.9545C208.188 16.9545 212.756 18.0909 216.597 20.3636C220.46 22.6136 223.438 25.7727 225.528 29.8409C227.619 33.8864 228.665 38.6136 228.665 44.0227C228.665 49.3864 227.619 54.1023 225.528 58.1705C223.438 62.2159 220.46 65.375 216.597 67.6477C212.756 69.8977 208.188 71.0227 202.892 71.0227ZM202.96 59.7727C205.369 59.7727 207.381 59.0909 208.994 57.7273C210.608 56.3409 211.824 54.4545 212.642 52.0682C213.483 49.6818 213.903 46.9659 213.903 43.9205C213.903 40.875 213.483 38.1591 212.642 35.7727C211.824 33.3864 210.608 31.5 208.994 30.1136C207.381 28.7273 205.369 28.0341 202.96 28.0341C200.528 28.0341 198.483 28.7273 196.824 30.1136C195.188 31.5 193.949 33.3864 193.108 35.7727C192.29 38.1591 191.881 40.875 191.881 43.9205C191.881 46.9659 192.29 49.6818 193.108 52.0682C193.949 54.4545 195.188 56.3409 196.824 57.7273C198.483 59.0909 200.528 59.7727 202.96 59.7727Z" fill="#007FDB"/>
</svg>
